<svg width="130" height="34" viewBox="0 0 130 34" fill="none" xmlns="http://www.w3.org/2000/svg">
<g id="Group 348">
<g id="Rectangle 7" filter="url(#filter0_d_1_475)">
<rect width="130" height="30" rx="8" fill="url(#paint0_linear_1_475)"/>
<rect x="0.5" y="0.5" width="129" height="29" rx="7.5" stroke="#FD70FF"/>
</g>
<path id="RESTART" d="M48.352 21H46.132L44.827 16.845H44.122V21H41.992V10.32H45.037C47.362 10.32 48.007 11.535 48.007 13.575C48.007 14.715 47.827 15.735 46.792 16.38L48.352 21ZM45.877 13.575C45.877 12.96 45.832 12.24 45.022 12.24H44.122V14.925H45.022C45.832 14.925 45.877 14.19 45.877 13.575ZM54.4706 21H49.5506V10.32H54.4706V12.24H51.6806V14.655H54.0806V16.575H51.6806V19.08H54.4706V21ZM61.4612 17.955C61.4612 19.035 61.3262 19.785 60.7712 20.325C60.2912 20.79 59.4812 21.12 58.4462 21.12C57.3962 21.12 56.6162 20.82 56.1362 20.34C55.6112 19.815 55.4312 19.065 55.4312 17.97H57.5612C57.5612 18.405 57.5912 18.72 57.7862 18.945C57.9062 19.08 58.1162 19.2 58.4462 19.2C58.7762 19.2 58.9862 19.11 59.1212 18.93C59.2712 18.75 59.3312 18.465 59.3312 18.03C59.3312 17.01 59.1662 16.83 58.4012 16.515L57.0512 15.96C55.9712 15.51 55.5212 14.94 55.5212 13.275C55.5212 12.285 55.8362 11.46 56.4812 10.905C56.9912 10.47 57.6362 10.23 58.4462 10.23C59.3912 10.23 60.0812 10.47 60.5462 10.905C61.1312 11.445 61.3712 12.3 61.3712 13.38H59.2412C59.2412 13.005 59.2412 12.66 59.0612 12.42C58.9412 12.255 58.7612 12.15 58.4462 12.15C58.1462 12.15 57.9512 12.27 57.8312 12.435C57.6962 12.615 57.6512 12.84 57.6512 13.2C57.6512 13.875 57.7712 14.07 58.3862 14.325L59.7212 14.865C61.0712 15.42 61.4612 16.02 61.4612 17.955ZM67.9245 12.24H66.1245V21H63.9945V12.24H62.1945V10.32H67.9245V12.24ZM75.1556 21H72.9356L72.5906 19.335H70.1306L69.7856 21H67.5656L70.3106 10.32H72.4106L75.1556 21ZM72.1856 17.415L71.3606 13.455L70.5356 17.415H72.1856ZM82.4243 21H80.2043L78.8993 16.845H78.1943V21H76.0643V10.32H79.1093C81.4343 10.32 82.0793 11.535 82.0793 13.575C82.0793 14.715 81.8993 15.735 80.8643 16.38L82.4243 21ZM79.9493 13.575C79.9493 12.96 79.9043 12.24 79.0943 12.24H78.1943V14.925H79.0943C79.9043 14.925 79.9493 14.19 79.9493 13.575ZM88.5349 12.24H86.7349V21H84.6049V12.24H82.8049V10.32H88.5349V12.24Z" fill="#610057"/>
</g>
<defs>
<filter id="filter0_d_1_475" x="0" y="0" width="130" height="34" filterUnits="userSpaceOnUse" color-interpolation-filters="sRGB">
<feFlood flood-opacity="0" result="BackgroundImageFix"/>
<feColorMatrix in="SourceAlpha" type="matrix" values="0 0 0 0 0 0 0 0 0 0 0 0 0 0 0 0 0 0 127 0" result="hardAlpha"/>
<feOffset dy="4"/>
<feComposite in2="hardAlpha" operator="out"/>
<feColorMatrix type="matrix" values="0 0 0 0 0.356863 0 0 0 0 0 0 0 0 0 0.321176 0 0 0 1 0"/>
<feBlend mode="normal" in2="BackgroundImageFix" result="effect1_dropShadow_1_475"/>
<feBlend mode="normal" in="SourceGraphic" in2="effect1_dropShadow_1_475" result="shape"/>
</filter>
<linearGradient id="paint0_linear_1_475" x1="65" y1="0" x2="65" y2="30" gradientUnits="userSpaceOnUse">
<stop stop-color="#FD00CF"/>
<stop offset="1" stop-color="#61004F"/>
</linearGradient>
</defs>
</svg>
