<svg width="130" height="34" viewBox="0 0 130 34" fill="none" xmlns="http://www.w3.org/2000/svg">
<g id="Group 377">
<g id="Rectangle 7" filter="url(#filter0_d_1_580)">
<rect width="130" height="30" rx="8" fill="url(#paint0_linear_1_580)"/>
<rect x="0.5" y="0.5" width="129" height="29" rx="7.5" stroke="#70EAFF"/>
</g>
<path id="RESUME" d="M50.249 21H48.029L46.724 16.845H46.019V21H43.889V10.32H46.934C49.259 10.32 49.904 11.535 49.904 13.575C49.904 14.715 49.724 15.735 48.689 16.38L50.249 21ZM47.774 13.575C47.774 12.96 47.729 12.24 46.919 12.24H46.019V14.925H46.919C47.729 14.925 47.774 14.19 47.774 13.575ZM56.3676 21H51.4476V10.32H56.3676V12.24H53.5776V14.655H55.9776V16.575H53.5776V19.08H56.3676V21ZM63.3581 17.955C63.3581 19.035 63.2231 19.785 62.6681 20.325C62.1881 20.79 61.3781 21.12 60.3431 21.12C59.2931 21.12 58.5131 20.82 58.0331 20.34C57.5081 19.815 57.3281 19.065 57.3281 17.97H59.4581C59.4581 18.405 59.4881 18.72 59.6831 18.945C59.8031 19.08 60.0131 19.2 60.3431 19.2C60.6731 19.2 60.8831 19.11 61.0181 18.93C61.1681 18.75 61.2281 18.465 61.2281 18.03C61.2281 17.01 61.0631 16.83 60.2981 16.515L58.9481 15.96C57.8681 15.51 57.4181 14.94 57.4181 13.275C57.4181 12.285 57.7331 11.46 58.3781 10.905C58.8881 10.47 59.5331 10.23 60.3431 10.23C61.2881 10.23 61.9781 10.47 62.4431 10.905C63.0281 11.445 63.2681 12.3 63.2681 13.38H61.1381C61.1381 13.005 61.1381 12.66 60.9581 12.42C60.8381 12.255 60.6581 12.15 60.3431 12.15C60.0431 12.15 59.8481 12.27 59.7281 12.435C59.5931 12.615 59.5481 12.84 59.5481 13.2C59.5481 13.875 59.6681 14.07 60.2831 14.325L61.6181 14.865C62.9681 15.42 63.3581 16.02 63.3581 17.955ZM70.6447 18.135C70.6447 18.99 70.3597 19.71 69.8497 20.235C69.2797 20.82 68.5297 21.12 67.6297 21.12C66.7297 21.12 65.9797 20.82 65.4097 20.235C64.8997 19.71 64.6147 18.99 64.6147 18.135V10.32H66.7447V18.24C66.7447 18.93 67.1497 19.2 67.6297 19.2C68.1097 19.2 68.5147 18.93 68.5147 18.24V10.32H70.6447V18.135ZM79.884 21H77.754V15.435L76.584 19.095H75.489L74.349 15.45V21H72.219V10.32H74.094L76.044 15.555L77.994 10.32H79.884V21ZM86.4554 21H81.5354V10.32H86.4554V12.24H83.6654V14.655H86.0654V16.575H83.6654V19.08H86.4554V21Z" fill="#07453E"/>
</g>
<defs>
<filter id="filter0_d_1_580" x="0" y="0" width="130" height="34" filterUnits="userSpaceOnUse" color-interpolation-filters="sRGB">
<feFlood flood-opacity="0" result="BackgroundImageFix"/>
<feColorMatrix in="SourceAlpha" type="matrix" values="0 0 0 0 0 0 0 0 0 0 0 0 0 0 0 0 0 0 127 0" result="hardAlpha"/>
<feOffset dy="4"/>
<feComposite in2="hardAlpha" operator="out"/>
<feColorMatrix type="matrix" values="0 0 0 0 0 0 0 0 0 0.333072 0 0 0 0 0.356863 0 0 0 1 0"/>
<feBlend mode="normal" in2="BackgroundImageFix" result="effect1_dropShadow_1_580"/>
<feBlend mode="normal" in="SourceGraphic" in2="effect1_dropShadow_1_580" result="shape"/>
</filter>
<linearGradient id="paint0_linear_1_580" x1="65" y1="0" x2="65" y2="30" gradientUnits="userSpaceOnUse">
<stop stop-color="#00F5FD"/>
<stop offset="1" stop-color="#005761"/>
</linearGradient>
</defs>
</svg>
