<svg width="130" height="34" viewBox="0 0 130 34" fill="none" xmlns="http://www.w3.org/2000/svg">
<g id="Group 370">
<g id="Rectangle 7" filter="url(#filter0_d_1_553)">
<rect width="130" height="30" rx="8" fill="url(#paint0_linear_1_553)"/>
<rect x="0.5" y="0.5" width="129" height="29" rx="7.5" stroke="#FFF370"/>
</g>
<path id="SETTINGS" d="M45.6262 17.955C45.6262 19.035 45.4912 19.785 44.9362 20.325C44.4562 20.79 43.6462 21.12 42.6112 21.12C41.5612 21.12 40.7812 20.82 40.3012 20.34C39.7762 19.815 39.5962 19.065 39.5962 17.97H41.7262C41.7262 18.405 41.7562 18.72 41.9512 18.945C42.0712 19.08 42.2812 19.2 42.6112 19.2C42.9412 19.2 43.1512 19.11 43.2862 18.93C43.4362 18.75 43.4962 18.465 43.4962 18.03C43.4962 17.01 43.3312 16.83 42.5662 16.515L41.2162 15.96C40.1362 15.51 39.6862 14.94 39.6862 13.275C39.6862 12.285 40.0012 11.46 40.6462 10.905C41.1562 10.47 41.8012 10.23 42.6112 10.23C43.5562 10.23 44.2462 10.47 44.7112 10.905C45.2962 11.445 45.5362 12.3 45.5362 13.38H43.4062C43.4062 13.005 43.4062 12.66 43.2262 12.42C43.1062 12.255 42.9262 12.15 42.6112 12.15C42.3112 12.15 42.1162 12.27 41.9962 12.435C41.8612 12.615 41.8162 12.84 41.8162 13.2C41.8162 13.875 41.9362 14.07 42.5512 14.325L43.8862 14.865C45.2362 15.42 45.6262 16.02 45.6262 17.955ZM51.8778 21H46.9578V10.32H51.8778V12.24H49.0878V14.655H51.4878V16.575H49.0878V19.08H51.8778V21ZM58.3884 12.24H56.5884V21H54.4584V12.24H52.6584V10.32H58.3884V12.24ZM64.7165 12.24H62.9165V21H60.7865V12.24H58.9865V10.32H64.7165V12.24ZM67.9696 21H65.8396V10.32H67.9696V21ZM75.8289 21H74.0139L71.7489 15.78V21H69.6189V10.32H71.4789L73.6989 15.54V10.32H75.8289V21ZM83.3202 17.835C83.3202 19.965 82.1352 21.12 80.3052 21.12C79.1502 21.12 78.4452 20.64 77.9652 20.04C77.2152 19.125 77.1702 17.715 77.1702 15.66C77.1702 13.605 77.2152 12.195 77.9652 11.28C78.4452 10.68 79.1502 10.2 80.3052 10.2C81.2052 10.2 81.8952 10.5 82.4052 10.995C82.9752 11.565 83.2752 12.405 83.3202 13.38H81.1902C81.1752 12.93 81.1152 12.12 80.3052 12.12C79.9152 12.12 79.7052 12.3 79.5852 12.54C79.3302 13.035 79.3002 14.37 79.3002 15.66C79.3002 16.95 79.3302 18.285 79.5852 18.78C79.7052 19.02 79.9152 19.2 80.3052 19.2C81.0102 19.2 81.1902 18.54 81.1902 17.955V16.845H80.3052V15.12H83.3202V17.835ZM90.3772 17.955C90.3772 19.035 90.2422 19.785 89.6872 20.325C89.2072 20.79 88.3972 21.12 87.3622 21.12C86.3122 21.12 85.5322 20.82 85.0522 20.34C84.5272 19.815 84.3472 19.065 84.3472 17.97H86.4772C86.4772 18.405 86.5072 18.72 86.7022 18.945C86.8222 19.08 87.0322 19.2 87.3622 19.2C87.6922 19.2 87.9022 19.11 88.0372 18.93C88.1872 18.75 88.2472 18.465 88.2472 18.03C88.2472 17.01 88.0822 16.83 87.3172 16.515L85.9672 15.96C84.8872 15.51 84.4372 14.94 84.4372 13.275C84.4372 12.285 84.7522 11.46 85.3972 10.905C85.9072 10.47 86.5522 10.23 87.3622 10.23C88.3072 10.23 88.9972 10.47 89.4622 10.905C90.0472 11.445 90.2872 12.3 90.2872 13.38H88.1572C88.1572 13.005 88.1572 12.66 87.9772 12.42C87.8572 12.255 87.6772 12.15 87.3622 12.15C87.0622 12.15 86.8672 12.27 86.7472 12.435C86.6122 12.615 86.5672 12.84 86.5672 13.2C86.5672 13.875 86.6872 14.07 87.3022 14.325L88.6372 14.865C89.9872 15.42 90.3772 16.02 90.3772 17.955Z" fill="#454007"/>
</g>
<defs>
<filter id="filter0_d_1_553" x="0" y="0" width="130" height="34" filterUnits="userSpaceOnUse" color-interpolation-filters="sRGB">
<feFlood flood-opacity="0" result="BackgroundImageFix"/>
<feColorMatrix in="SourceAlpha" type="matrix" values="0 0 0 0 0 0 0 0 0 0 0 0 0 0 0 0 0 0 127 0" result="hardAlpha"/>
<feOffset dy="4"/>
<feComposite in2="hardAlpha" operator="out"/>
<feColorMatrix type="matrix" values="0 0 0 0 0.356863 0 0 0 0 0.327124 0 0 0 0 0 0 0 0 1 0"/>
<feBlend mode="normal" in2="BackgroundImageFix" result="effect1_dropShadow_1_553"/>
<feBlend mode="normal" in="SourceGraphic" in2="effect1_dropShadow_1_553" result="shape"/>
</filter>
<linearGradient id="paint0_linear_1_553" x1="65" y1="0" x2="65" y2="30" gradientUnits="userSpaceOnUse">
<stop stop-color="#FDFD00"/>
<stop offset="1" stop-color="#615E00"/>
</linearGradient>
</defs>
</svg>
