<svg width="130" height="34" viewBox="0 0 130 34" fill="none" xmlns="http://www.w3.org/2000/svg">
<g id="Group 344">
<g id="Rectangle 7" filter="url(#filter0_d_1_460)">
<rect width="130" height="30" rx="8" fill="url(#paint0_linear_1_460)"/>
<rect x="0.5" y="0.5" width="129" height="29" rx="7.5" stroke="#BFBFBF"/>
</g>
<path id="OPTIONS" d="M48.8718 15.66C48.8718 17.715 48.8268 19.125 48.0768 20.04C47.5968 20.64 46.8918 21.12 45.7368 21.12C44.5818 21.12 43.8768 20.64 43.3968 20.04C42.6468 19.125 42.6018 17.715 42.6018 15.66C42.6018 13.605 42.6468 12.195 43.3968 11.28C43.8768 10.68 44.5818 10.2 45.7368 10.2C46.8918 10.2 47.5968 10.68 48.0768 11.28C48.8268 12.195 48.8718 13.605 48.8718 15.66ZM46.7418 15.66C46.7418 14.37 46.7118 13.035 46.4568 12.54C46.3368 12.3 46.1268 12.12 45.7368 12.12C45.3468 12.12 45.1368 12.3 45.0168 12.54C44.7618 13.035 44.7318 14.37 44.7318 15.66C44.7318 16.95 44.7618 18.285 45.0168 18.78C45.1368 19.02 45.3468 19.2 45.7368 19.2C46.1268 19.2 46.3368 19.02 46.4568 18.78C46.7118 18.285 46.7418 16.95 46.7418 15.66ZM56.2267 13.725C56.2267 15.81 55.5367 17.13 53.2267 17.13H52.3417V21H50.2117V10.32H53.2267C55.5367 10.32 56.2267 11.64 56.2267 13.725ZM54.0967 13.725C54.0967 13.05 54.0667 12.24 53.1667 12.24H52.3417V15.21H53.1667C54.0667 15.21 54.0967 14.4 54.0967 13.725ZM62.653 12.24H60.853V21H58.723V12.24H56.923V10.32H62.653V12.24ZM65.9062 21H63.7762V10.32H65.9062V21ZM73.5105 15.66C73.5105 17.715 73.4655 19.125 72.7155 20.04C72.2355 20.64 71.5305 21.12 70.3755 21.12C69.2205 21.12 68.5155 20.64 68.0355 20.04C67.2855 19.125 67.2405 17.715 67.2405 15.66C67.2405 13.605 67.2855 12.195 68.0355 11.28C68.5155 10.68 69.2205 10.2 70.3755 10.2C71.5305 10.2 72.2355 10.68 72.7155 11.28C73.4655 12.195 73.5105 13.605 73.5105 15.66ZM71.3805 15.66C71.3805 14.37 71.3505 13.035 71.0955 12.54C70.9755 12.3 70.7655 12.12 70.3755 12.12C69.9855 12.12 69.7755 12.3 69.6555 12.54C69.4005 13.035 69.3705 14.37 69.3705 15.66C69.3705 16.95 69.4005 18.285 69.6555 18.78C69.7755 19.02 69.9855 19.2 70.3755 19.2C70.7655 19.2 70.9755 19.02 71.0955 18.78C71.3505 18.285 71.3805 16.95 71.3805 15.66ZM81.0604 21H79.2454L76.9804 15.78V21H74.8504V10.32H76.7104L78.9304 15.54V10.32H81.0604V21ZM88.4016 17.955C88.4016 19.035 88.2666 19.785 87.7116 20.325C87.2316 20.79 86.4216 21.12 85.3866 21.12C84.3366 21.12 83.5566 20.82 83.0766 20.34C82.5516 19.815 82.3716 19.065 82.3716 17.97H84.5016C84.5016 18.405 84.5316 18.72 84.7266 18.945C84.8466 19.08 85.0566 19.2 85.3866 19.2C85.7166 19.2 85.9266 19.11 86.0616 18.93C86.2116 18.75 86.2716 18.465 86.2716 18.03C86.2716 17.01 86.1066 16.83 85.3416 16.515L83.9916 15.96C82.9116 15.51 82.4616 14.94 82.4616 13.275C82.4616 12.285 82.7766 11.46 83.4216 10.905C83.9316 10.47 84.5766 10.23 85.3866 10.23C86.3316 10.23 87.0216 10.47 87.4866 10.905C88.0716 11.445 88.3116 12.3 88.3116 13.38H86.1816C86.1816 13.005 86.1816 12.66 86.0016 12.42C85.8816 12.255 85.7016 12.15 85.3866 12.15C85.0866 12.15 84.8916 12.27 84.7716 12.435C84.6366 12.615 84.5916 12.84 84.5916 13.2C84.5916 13.875 84.7116 14.07 85.3266 14.325L86.6616 14.865C88.0116 15.42 88.4016 16.02 88.4016 17.955Z" fill="#626262"/>
</g>
<defs>
<filter id="filter0_d_1_460" x="0" y="0" width="130" height="34" filterUnits="userSpaceOnUse" color-interpolation-filters="sRGB">
<feFlood flood-opacity="0" result="BackgroundImageFix"/>
<feColorMatrix in="SourceAlpha" type="matrix" values="0 0 0 0 0 0 0 0 0 0 0 0 0 0 0 0 0 0 127 0" result="hardAlpha"/>
<feOffset dy="4"/>
<feComposite in2="hardAlpha" operator="out"/>
<feColorMatrix type="matrix" values="0 0 0 0 0.583333 0 0 0 0 0.583333 0 0 0 0 0.583333 0 0 0 1 0"/>
<feBlend mode="normal" in2="BackgroundImageFix" result="effect1_dropShadow_1_460"/>
<feBlend mode="normal" in="SourceGraphic" in2="effect1_dropShadow_1_460" result="shape"/>
</filter>
<linearGradient id="paint0_linear_1_460" x1="65" y1="0" x2="65" y2="30" gradientUnits="userSpaceOnUse">
<stop stop-color="#E8E8E8"/>
<stop offset="1" stop-color="#A9A9A9"/>
</linearGradient>
</defs>
</svg>
