<svg width="85" height="35" viewBox="0 0 85 35" fill="none" xmlns="http://www.w3.org/2000/svg">
<g id="Title" filter="url(#filter0_d_1_624)">
<mask id="path-1-outside-1_1_624" maskUnits="userSpaceOnUse" x="-1" y="-1" width="87" height="35" fill="black">
<rect fill="white" x="-1" y="-1" width="87" height="35"/>
<path d="M17.4357 6.72H12.0357V33H5.6457V6.72H0.245703V0.959999H17.4357V6.72ZM27.1951 33H20.8051V0.959999H27.1951V33ZM47.758 6.72H42.358V33H35.968V6.72H30.568V0.959999H47.758V6.72ZM65.8873 33H51.1273V0.959999H57.5173V27.24H65.8873V33ZM84.2125 33H69.4525V0.959999H84.2125V6.72H75.8425V13.965H83.0425V19.725H75.8425V27.24H84.2125V33Z"/>
</mask>
<path d="M17.4357 6.72H12.0357V33H5.6457V6.72H0.245703V0.959999H17.4357V6.72ZM27.1951 33H20.8051V0.959999H27.1951V33ZM47.758 6.72H42.358V33H35.968V6.72H30.568V0.959999H47.758V6.72ZM65.8873 33H51.1273V0.959999H57.5173V27.24H65.8873V33ZM84.2125 33H69.4525V0.959999H84.2125V6.72H75.8425V13.965H83.0425V19.725H75.8425V27.24H84.2125V33Z" fill="url(#paint0_linear_1_624)"/>
<path d="M17.4357 6.72V7.72H18.4357V6.72H17.4357ZM12.0357 6.72V5.72H11.0357V6.72H12.0357ZM12.0357 33V34H13.0357V33H12.0357ZM5.6457 33H4.6457V34H5.6457V33ZM5.6457 6.72H6.6457V5.72H5.6457V6.72ZM0.245703 6.72H-0.754297V7.72H0.245703V6.72ZM0.245703 0.959999V-0.0400009H-0.754297V0.959999H0.245703ZM17.4357 0.959999H18.4357V-0.0400009H17.4357V0.959999ZM17.4357 5.72H12.0357V7.72H17.4357V5.72ZM11.0357 6.72V33H13.0357V6.72H11.0357ZM12.0357 32H5.6457V34H12.0357V32ZM6.6457 33V6.72H4.6457V33H6.6457ZM5.6457 5.72H0.245703V7.72H5.6457V5.72ZM1.2457 6.72V0.959999H-0.754297V6.72H1.2457ZM0.245703 1.96H17.4357V-0.0400009H0.245703V1.96ZM16.4357 0.959999V6.72H18.4357V0.959999H16.4357ZM27.1951 33V34H28.1951V33H27.1951ZM20.8051 33H19.8051V34H20.8051V33ZM20.8051 0.959999V-0.0400009H19.8051V0.959999H20.8051ZM27.1951 0.959999H28.1951V-0.0400009H27.1951V0.959999ZM27.1951 32H20.8051V34H27.1951V32ZM21.8051 33V0.959999H19.8051V33H21.8051ZM20.8051 1.96H27.1951V-0.0400009H20.8051V1.96ZM26.1951 0.959999V33H28.1951V0.959999H26.1951ZM47.758 6.72V7.72H48.758V6.72H47.758ZM42.358 6.72V5.72H41.358V6.72H42.358ZM42.358 33V34H43.358V33H42.358ZM35.968 33H34.968V34H35.968V33ZM35.968 6.72H36.968V5.72H35.968V6.72ZM30.568 6.72H29.568V7.72H30.568V6.72ZM30.568 0.959999V-0.0400009H29.568V0.959999H30.568ZM47.758 0.959999H48.758V-0.0400009H47.758V0.959999ZM47.758 5.72H42.358V7.72H47.758V5.72ZM41.358 6.72V33H43.358V6.72H41.358ZM42.358 32H35.968V34H42.358V32ZM36.968 33V6.72H34.968V33H36.968ZM35.968 5.72H30.568V7.72H35.968V5.72ZM31.568 6.72V0.959999H29.568V6.72H31.568ZM30.568 1.96H47.758V-0.0400009H30.568V1.96ZM46.758 0.959999V6.72H48.758V0.959999H46.758ZM65.8873 33V34H66.8873V33H65.8873ZM51.1273 33H50.1273V34H51.1273V33ZM51.1273 0.959999V-0.0400009H50.1273V0.959999H51.1273ZM57.5173 0.959999H58.5173V-0.0400009H57.5173V0.959999ZM57.5173 27.24H56.5173V28.24H57.5173V27.24ZM65.8873 27.24H66.8873V26.24H65.8873V27.24ZM65.8873 32H51.1273V34H65.8873V32ZM52.1273 33V0.959999H50.1273V33H52.1273ZM51.1273 1.96H57.5173V-0.0400009H51.1273V1.96ZM56.5173 0.959999V27.24H58.5173V0.959999H56.5173ZM57.5173 28.24H65.8873V26.24H57.5173V28.24ZM64.8873 27.24V33H66.8873V27.24H64.8873ZM84.2125 33V34H85.2125V33H84.2125ZM69.4525 33H68.4525V34H69.4525V33ZM69.4525 0.959999V-0.0400009H68.4525V0.959999H69.4525ZM84.2125 0.959999H85.2125V-0.0400009H84.2125V0.959999ZM84.2125 6.72V7.72H85.2125V6.72H84.2125ZM75.8425 6.72V5.72H74.8425V6.72H75.8425ZM75.8425 13.965H74.8425V14.965H75.8425V13.965ZM83.0425 13.965H84.0425V12.965H83.0425V13.965ZM83.0425 19.725V20.725H84.0425V19.725H83.0425ZM75.8425 19.725V18.725H74.8425V19.725H75.8425ZM75.8425 27.24H74.8425V28.24H75.8425V27.24ZM84.2125 27.24H85.2125V26.24H84.2125V27.24ZM84.2125 32H69.4525V34H84.2125V32ZM70.4525 33V0.959999H68.4525V33H70.4525ZM69.4525 1.96H84.2125V-0.0400009H69.4525V1.96ZM83.2125 0.959999V6.72H85.2125V0.959999H83.2125ZM84.2125 5.72H75.8425V7.72H84.2125V5.72ZM74.8425 6.72V13.965H76.8425V6.72H74.8425ZM75.8425 14.965H83.0425V12.965H75.8425V14.965ZM82.0425 13.965V19.725H84.0425V13.965H82.0425ZM83.0425 18.725H75.8425V20.725H83.0425V18.725ZM74.8425 19.725V27.24H76.8425V19.725H74.8425ZM75.8425 28.24H84.2125V26.24H75.8425V28.24ZM83.2125 27.24V33H85.2125V27.24H83.2125Z" fill="#B070FF" mask="url(#path-1-outside-1_1_624)"/>
</g>
<defs>
<filter id="filter0_d_1_624" x="0.245697" y="0.960022" width="83.9668" height="34.04" filterUnits="userSpaceOnUse" color-interpolation-filters="sRGB">
<feFlood flood-opacity="0" result="BackgroundImageFix"/>
<feColorMatrix in="SourceAlpha" type="matrix" values="0 0 0 0 0 0 0 0 0 0 0 0 0 0 0 0 0 0 127 0" result="hardAlpha"/>
<feOffset dy="2"/>
<feComposite in2="hardAlpha" operator="out"/>
<feColorMatrix type="matrix" values="0 0 0 0 0.192157 0 0 0 0 0 0 0 0 0 0.356863 0 0 0 1 0"/>
<feBlend mode="normal" in2="BackgroundImageFix" result="effect1_dropShadow_1_624"/>
<feBlend mode="normal" in="SourceGraphic" in2="effect1_dropShadow_1_624" result="shape"/>
</filter>
<linearGradient id="paint0_linear_1_624" x1="42.5" y1="-12" x2="42.5" y2="43" gradientUnits="userSpaceOnUse">
<stop stop-color="#8F00FD"/>
<stop offset="1" stop-color="#2C0061"/>
</linearGradient>
</defs>
</svg>
